# xmcd
#
# Track frame offsets:
#	150
#	14356
#	27627
#	40391
#	54520
#	69998
#	87232
#	103146
#	118671
#	133695
#	148906
#	162525
#	177020
#	191476
#	202742
#	216558
#	231516
#	245451
#	258605
#	274449
#	290048
#	308776
#
# Disc length: 4292 seconds
#
# Revision: 1
# Processed by: cddbd v1.5.2PL0 Copyright (c) Steve Scherf et al.
# Submitted via: EasyCDDAExtractor 10.0.1.1
#
DISCID=5e10c216
DTITLE=Larry Pierce - Dirty Old Man
DYEAR=1997
DGENRE=Country
TTITLE0=Pretty Woman
TTITLE1=Hillbilly Girlfriend
TTITLE2=When The Carnival Came To Town
TTITLE3=Good Hard Screwing
TTITLE4=Porking You Is Always On My Mind
TTITLE5=Girls Were Made To Screw
TTITLE6=We Screwed In The Rain
TTITLE7=Pretty Cowgirl
TTITLE8=A Law Against Brassieres
TTITLE9=That Girl Makes Me Horny
TTITLE10=Front Row Ticket
TTITLE11=Her Old Love Letters
TTITLE12=If You Want Romance...
TTITLE13=She's A Nymphomaniac
TTITLE14=I'm A Prick (Fools Are A Dime A Dozen)
TTITLE15=Screw Your Brains Out (One Night Stand)
TTITLE16=Get It Through Your Head
TTITLE17=Gigolo
TTITLE18=Hike Your Skirt Up Higher (Stank Up The Whole Room)
TTITLE19=Don't Tell Anyone I Screwed You (Can I Buy You A Drink)
TTITLE20=Shriveled Up
TTITLE21=I Asked Her For A Date
EXTD=
EXTT0=
EXTT1=
EXTT2=
EXTT3=
EXTT4=
EXTT5=
EXTT6=
EXTT7=
EXTT8=
EXTT9=
EXTT10=
EXTT11=
EXTT12=
EXTT13=
EXTT14=
EXTT15=
EXTT16=
EXTT17=
EXTT18=
EXTT19=
EXTT20=
EXTT21=
PLAYORDER=
